<svg id="Layer_1" data-name="Layer 1" xmlns="http://www.w3.org/2000/svg" viewBox="0 0 512 512"><defs><style>.cls-1{fill:#141f38;}</style></defs><title>medal-2-glyph</title><path class="cls-1" d="M500.8,229a38.23,38.23,0,0,1-8.29-41.67h0a38.23,38.23,0,0,0-20.69-50A38.23,38.23,0,0,1,448.22,102,38.23,38.23,0,0,0,410,63.78h0a38.23,38.23,0,0,1-35.32-23.6h0a38.2,38.2,0,0,0-50-20.69h0a38.16,38.16,0,0,1-14.62,2.91,38.23,38.23,0,0,1-27-11.2h0a38.23,38.23,0,0,0-54.07,0h0a38.23,38.23,0,0,1-27,11.2,38.16,38.16,0,0,1-14.62-2.91h0a38.2,38.2,0,0,0-50,20.69h0A38.23,38.23,0,0,1,102,63.78h0A38.23,38.23,0,0,0,63.78,102a38.23,38.23,0,0,1-23.6,35.32,38.23,38.23,0,0,0-20.69,50h0A38.23,38.23,0,0,1,11.2,229a38.23,38.23,0,0,0,0,54.07,38.23,38.23,0,0,1,8.29,41.67h0a38.23,38.23,0,0,0,20.69,50h0A38.23,38.23,0,0,1,63.78,410h0A38.23,38.23,0,0,0,102,448.22h0a38.23,38.23,0,0,1,35.32,23.6h0a38.2,38.2,0,0,0,50,20.69h0A38.23,38.23,0,0,1,229,500.8h0a38.23,38.23,0,0,0,54.07,0h0a38.23,38.23,0,0,1,41.67-8.29h0a38.2,38.2,0,0,0,50-20.69h0A38.23,38.23,0,0,1,410,448.22h0A38.23,38.23,0,0,0,448.22,410h0a38.23,38.23,0,0,1,23.6-35.32h0a38.23,38.23,0,0,0,20.69-50h0A38.23,38.23,0,0,1,500.8,283,38.23,38.23,0,0,0,500.8,229Zm-18.1,36a63.65,63.65,0,0,0-13.84,69.57A12.65,12.65,0,0,1,462,351a63.64,63.64,0,0,0-39.41,59A12.65,12.65,0,0,1,410,422.62,63.65,63.65,0,0,0,351,462a12.6,12.6,0,0,1-16.51,6.84,63.83,63.83,0,0,0-69.57,13.84,12.64,12.64,0,0,1-17.87,0,63.83,63.83,0,0,0-69.57-13.84A12.6,12.6,0,0,1,161,462a63.65,63.65,0,0,0-59-39.41A12.65,12.65,0,0,1,89.38,410,63.65,63.65,0,0,0,50,351a12.63,12.63,0,0,1-6.84-16.51A63.65,63.65,0,0,0,29.3,264.93a12.64,12.64,0,0,1,0-17.87A63.64,63.64,0,0,0,43.14,177.5,12.63,12.63,0,0,1,50,161a63.65,63.65,0,0,0,39.41-59A12.65,12.65,0,0,1,102,89.38,63.65,63.65,0,0,0,161,50a12.6,12.6,0,0,1,16.51-6.84A63.5,63.5,0,0,0,201.92,48a63.43,63.43,0,0,0,45.15-18.7,12.64,12.64,0,0,1,17.87,0A63.43,63.43,0,0,0,310.08,48a63.51,63.51,0,0,0,24.42-4.86A12.6,12.6,0,0,1,351,50a63.64,63.64,0,0,0,59,39.4A12.65,12.65,0,0,1,422.62,102,63.65,63.65,0,0,0,462,161a12.64,12.64,0,0,1,6.84,16.51,63.64,63.64,0,0,0,13.84,69.56,12.63,12.63,0,0,1,0,17.87ZM256,64C150,64,64,150,64,256s86,192,192,192,192-86,192-192S362,64,256,64Zm71.77,190.29-17.6,17.83a17.69,17.69,0,0,0-4.77,15.28l4.15,25.18c2.33,14.1-11.91,24.85-24.08,18.19l-21.75-11.89a16,16,0,0,0-15.45,0l-21.75,11.89c-12.18,6.66-26.41-4.09-24.08-18.19l4.15-25.18a17.69,17.69,0,0,0-4.77-15.28l-17.59-17.83c-9.85-10-4.42-27.38,9.2-29.44l24.32-3.67a16.66,16.66,0,0,0,12.5-9.44l10.87-22.91a16.32,16.32,0,0,1,29.77,0l10.87,22.91a16.66,16.66,0,0,0,12.5,9.44l24.32,3.67C332.18,226.91,337.62,244.3,327.77,254.29Z"/></svg>