<svg id="Layer_1" data-name="Layer 1" xmlns="http://www.w3.org/2000/svg" viewBox="0 0 512 512"><defs><style>.cls-1{fill:#141f38;}</style></defs><title>aim-glyph</title><path class="cls-1" d="M320,256a64,64,0,1,1-64-64A64,64,0,0,1,320,256Zm192,0a12.84,12.84,0,0,1-12.8,12.8H460.36C454,371.7,371.7,454,268.8,460.36V499.2a12.8,12.8,0,1,1-25.6,0V460.36C140.3,454,58,371.7,51.64,268.8H12.8a12.8,12.8,0,1,1,0-25.6H51.64C58,140.3,140.3,58,243.2,51.64V12.8a12.8,12.8,0,1,1,25.6,0V51.64C371.7,58,454,140.3,460.36,243.2H499.2A12.84,12.84,0,0,1,512,256ZM268.8,77.31v51.34A128,128,0,0,1,383.35,243.2h51.34C428.4,154.58,357.42,83.6,268.8,77.31ZM358.4,256A102.4,102.4,0,1,0,256,358.4,102.52,102.52,0,0,0,358.4,256ZM77.31,243.2h51.34A128,128,0,0,1,243.2,128.65V77.31C154.58,83.6,83.6,154.58,77.31,243.2ZM243.2,434.69V383.35A128,128,0,0,1,128.65,268.8H77.31C83.6,357.42,154.58,428.4,243.2,434.69ZM434.69,268.8H383.35A128,128,0,0,1,268.8,383.35v51.34C357.42,428.4,428.4,357.42,434.69,268.8Z"/></svg>