<svg id="Layer_1" data-name="Layer 1" xmlns="http://www.w3.org/2000/svg" viewBox="0 0 194.2 79.6"><defs><style>.cls-1{fill:#808177;}.cls-2{fill:#383838;}</style></defs><title>Logotipo Rauss</title><path class="cls-1" d="M1.3,79.6c-.1,0-.2,0-.2-.2v-8c0-.1,0-.2.2-.2H6.6c.1,0,.2,0,.2.2v.4c0,.1,0,.2-.2.2H2v2.9H6.4c.1,0,.2,0,.2.2v.4c0,.1,0,.2-.2.2H2v3H6.6c.1,0,.2,0,.2.2v.4c0,.1,0,.2-.2.2Z"/><path class="cls-1" d="M21.7,79.4c0,.1,0,.2-.2.2h-.6c-.1,0-.2,0-.2-.2V71.1h.3l5.6,6.7V71.4c0-.2,0-.2.2-.2h.6c.1,0,.2,0,.2.2v8.2h-.3l-5.6-6.7Z"/><path class="cls-1" d="M42.3,75.4a3.5,3.5,0,0,0,3.3,3.5,3.7,3.7,0,0,0,2.5-.9V76H45.8c-.1,0-.2,0-.2-.2v-.5c0-.1,0-.2.2-.2h3.1c.1,0,.2.1.2.2V78a.5.5,0,0,1-.2.4,4.8,4.8,0,0,1-3.2,1.3,4.3,4.3,0,0,1,0-8.7,4.7,4.7,0,0,1,3.1,1.2c.1.1.1.2,0,.3l-.4.4c-.1.1-.2.1-.3,0a3.7,3.7,0,0,0-2.5-1A3.5,3.5,0,0,0,42.3,75.4Z"/><path class="cls-1" d="M63.1,79.6c-.1,0-.2,0-.2-.2v-8c0-.1,0-.2.2-.2h5.3c.1,0,.2,0,.2.2v.4c0,.1,0,.2-.2.2H63.9v2.9h4.4c.1,0,.2,0,.2.2v.4c0,.1,0,.2-.2.2H63.9v3h4.6c.1,0,.2,0,.2.2v.4c0,.1,0,.2-.2.2Z"/><path class="cls-1" d="M83.5,79.4c0,.1,0,.2-.2.2h-.6c-.1,0-.2,0-.2-.2V71.1h.3l5.6,6.7V71.4c0-.2,0-.2.2-.2h.6c.1,0,.2,0,.2.2v8.2h-.3l-5.6-6.7Z"/><path class="cls-1" d="M109.6,71.4c0-.1,0-.2.2-.2h.6c.1,0,.2,0,.2.2v8c0,.1,0,.2-.2.2h-.6c-.1,0-.2,0-.2-.2V75.8h-4.7v3.6c0,.1,0,.2-.2.2h-.6c-.1,0-.2,0-.2-.2v-8c0-.1,0-.2.2-.2h.6c.1,0,.2,0,.2.2V75h4.7Z"/><path class="cls-1" d="M132.1,79.4c0,.1,0,.2-.1.2h-.7l-.2-.2-.9-2h-4.2l-.9,2-.3.2H124c-.1,0-.2-.1-.1-.2l3.9-8.2.2-.2h0v.2ZM128,72.6l-1.8,3.9h3.5L128,72.6Z"/><path class="cls-1" d="M149.5,76.2l2.3,3.2c.1.2,0,.2-.1.2h-.6l-.3-.2-2.2-3.1h-2.1v3.1c0,.2,0,.2-.2.2h-.6c-.1,0-.2,0-.2-.2v-8c0-.1,0-.2.2-.2h2.8c1.4,0,2.9.6,2.9,2.5A2.3,2.3,0,0,1,149.5,76.2Zm-1.1-.7c1.4,0,2-.7,2-1.8s-.8-1.7-2-1.7h-2v3.5Z"/><path class="cls-1" d="M165.5,71.4c0-.1,0-.2.2-.2h.6c.1,0,.2,0,.2.2v8c0,.1,0,.2-.2.2h-.6c-.1,0-.2,0-.2-.2Z"/><path class="cls-1" d="M188,79.4c0,.1,0,.2-.1.2h-.7l-.2-.2-.9-2h-4.2l-.9,2-.3.2H180c-.1,0-.2-.1-.1-.2l3.9-8.2.2-.2h0v.2Zm-4.1-6.8-1.8,3.9h3.5l-1.8-3.9Z"/><path class="cls-2" d="M77.3,41.9V1.2c0-1,.3-1.2,1.2-1.2H82c.9,0,1.2.3,1.2,1.2V41.5c0,12.5,6.3,17.1,15.4,17.1s15.4-4.6,15.4-17.1V1.2c0-.9.3-1.2,1.2-1.2h3.6c.9,0,1.1.3,1.1,1.2V41.9c0,15-9,22.7-21.3,22.7S77.3,56.8,77.3,41.9Z"/><path class="cls-2" d="M39.8,62.3l-14.2-26c7-1.9,11.8-9,11.8-18C37.4,6.1,27.7,0,19.1,0H1.2C.3,0,0,.3,0,1.2V62.6c0,1.1.3,1.2,1.2,1.2H4.7c.9,0,1.2-.2,1.2-1.2V5.9H18.7c7.8,0,12.9,5,12.9,12.5S27.7,31.9,18.7,31.9H15.7L33.3,62.6a2.4,2.4,0,0,0,2,1.2h3.5C39.8,63.8,40.4,63.3,39.8,62.3Z"/><path class="cls-2" d="M80,62.6,55.3,1.1C55,.5,54.8,0,54.4,0h-.2c-.5,0-.6.5-1,1.1L35.5,46.3a1.5,1.5,0,0,0,.1,1.5L38,52.3a.7.7,0,0,0,1.2-.1l15-38.6,19,49c.5.9.8,1.2,1.5,1.2h4.4C80,63.8,80.3,63.2,80,62.6Z"/><path class="cls-2" d="M143.6,28.9c-8.8-1.2-14.9-2.6-14.9-9.9,0-4.6,2.9-13.4,15.1-13.4a13.2,13.2,0,0,1,7.7,2c.6.4,1.3-.1,1.7-.8L155,4.2a1.3,1.3,0,0,0-.4-1.8C150.8.5,148.5,0,143.3,0c-15.5,0-20.2,11.8-20.2,18.6,0,11.9,8.2,14.8,17,16.1,10.5,1.6,17,4.4,17,11.8,0,9.3-8.2,11.6-15.6,11.6s-10.7-2.1-15.8-6c-1-.6-1.3-.4-1.8.5l-1.5,2.9c-.5,1-.5,1.4.3,2,6.1,4.7,11.2,6.9,19.7,6.9,13.8,0,20.4-8.9,20.4-18.5C162.8,34,154,30.4,143.6,28.9Z"/><path class="cls-2" d="M176.2,28.9c-8.7-1.8-14.7-3.7-14.3-11,.3-4.6,3.9-13,16-12.3a19.2,19.2,0,0,1,9.7,3.4.9.9,0,0,0,1.3-.4l1.9-3.4a1.1,1.1,0,0,0-.4-1.5A29,29,0,0,0,177.6.1c-15.5-1-20.9,10.5-21.3,17.3-.7,11.8,7.3,15.3,15.9,17.2,10.4,2.3,16.7,5.1,16.2,12.5-.6,9.3-8.7,11.7-16,11.1a13.9,13.9,0,0,1-5.5-1.7,2,2,0,0,0-2.6,1L163.3,59a2,2,0,0,0,.6,3,22.9,22.9,0,0,0,8.7,2.2c13.7.9,20.9-7.6,21.5-17.1C194.9,35.2,186.4,31.1,176.2,28.9Z"/></svg>